<mxfile host="app.diagrams.net" agent="Mozilla/5.0 (Macintosh; Intel Mac OS X 10_15_7) AppleWebKit/537.36 (KHTML, like Gecko) Chrome/135.0.0.0 Safari/537.36" version="26.2.12">
  <diagram name="Page-1" id="JR2kuJdq1zbRZiOPOg9G">
    <mxGraphModel dx="2255" dy="824" grid="1" gridSize="10" guides="1" tooltips="1" connect="1" arrows="1" fold="1" page="1" pageScale="1" pageWidth="827" pageHeight="1169" math="0" shadow="0">
      <root>
        <mxCell id="0" />
        <mxCell id="1" parent="0" />
        <mxCell id="3Fzgw3bwLbgeH6Izsh_8-107" value="" style="rounded=0;whiteSpace=wrap;html=1;" parent="1" vertex="1">
          <mxGeometry x="-590" y="70" width="180" height="430" as="geometry" />
        </mxCell>
        <mxCell id="3Fzgw3bwLbgeH6Izsh_8-58" value="10" style="whiteSpace=wrap;html=1;aspect=fixed;fillColor=#99FF99;" parent="1" vertex="1">
          <mxGeometry x="-553" y="80" width="40" height="40" as="geometry" />
        </mxCell>
        <mxCell id="3Fzgw3bwLbgeH6Izsh_8-59" value="20" style="whiteSpace=wrap;html=1;aspect=fixed;fillColor=#99FF99;" parent="1" vertex="1">
          <mxGeometry x="-513" y="80" width="40" height="40" as="geometry" />
        </mxCell>
        <mxCell id="3Fzgw3bwLbgeH6Izsh_8-60" value="8" style="whiteSpace=wrap;html=1;aspect=fixed;fillColor=#99FF99;" parent="1" vertex="1">
          <mxGeometry x="-473" y="80" width="40" height="40" as="geometry" />
        </mxCell>
        <mxCell id="3Fzgw3bwLbgeH6Izsh_8-76" value="+" style="ellipse;whiteSpace=wrap;html=1;aspect=fixed;fillColor=#3399FF;" parent="1" vertex="1">
          <mxGeometry x="-548" y="130" width="30" height="30" as="geometry" />
        </mxCell>
        <mxCell id="3Fzgw3bwLbgeH6Izsh_8-78" value="+" style="ellipse;whiteSpace=wrap;html=1;aspect=fixed;fillColor=#3399FF;" parent="1" vertex="1">
          <mxGeometry x="-468" y="130" width="30" height="30" as="geometry" />
        </mxCell>
        <mxCell id="3Fzgw3bwLbgeH6Izsh_8-80" value="3" style="whiteSpace=wrap;html=1;aspect=fixed;fillColor=#99FF99;" parent="1" vertex="1">
          <mxGeometry x="-553" y="170" width="40" height="40" as="geometry" />
        </mxCell>
        <mxCell id="3Fzgw3bwLbgeH6Izsh_8-81" value="2" style="whiteSpace=wrap;html=1;aspect=fixed;fillColor=#99FF99;" parent="1" vertex="1">
          <mxGeometry x="-513" y="170" width="40" height="40" as="geometry" />
        </mxCell>
        <mxCell id="3Fzgw3bwLbgeH6Izsh_8-82" value="13" style="whiteSpace=wrap;html=1;aspect=fixed;fillColor=#99FF99;" parent="1" vertex="1">
          <mxGeometry x="-473" y="170" width="40" height="40" as="geometry" />
        </mxCell>
        <mxCell id="3Fzgw3bwLbgeH6Izsh_8-98" value="" style="endArrow=none;html=1;rounded=0;exitX=0.5;exitY=1;exitDx=0;exitDy=0;entryX=0.5;entryY=0;entryDx=0;entryDy=0;" parent="1" source="3Fzgw3bwLbgeH6Izsh_8-58" target="3Fzgw3bwLbgeH6Izsh_8-76" edge="1">
          <mxGeometry width="50" height="50" relative="1" as="geometry">
            <mxPoint x="-453" y="330" as="sourcePoint" />
            <mxPoint x="-403" y="280" as="targetPoint" />
          </mxGeometry>
        </mxCell>
        <mxCell id="3Fzgw3bwLbgeH6Izsh_8-99" value="" style="endArrow=none;html=1;rounded=0;exitX=0.5;exitY=1;exitDx=0;exitDy=0;entryX=0.5;entryY=0;entryDx=0;entryDy=0;" parent="1" source="3Fzgw3bwLbgeH6Izsh_8-76" target="3Fzgw3bwLbgeH6Izsh_8-80" edge="1">
          <mxGeometry width="50" height="50" relative="1" as="geometry">
            <mxPoint x="-453" y="330" as="sourcePoint" />
            <mxPoint x="-403" y="280" as="targetPoint" />
          </mxGeometry>
        </mxCell>
        <mxCell id="3Fzgw3bwLbgeH6Izsh_8-100" value="" style="endArrow=none;html=1;rounded=0;exitX=0.5;exitY=1;exitDx=0;exitDy=0;" parent="1" source="3Fzgw3bwLbgeH6Izsh_8-77" edge="1">
          <mxGeometry width="50" height="50" relative="1" as="geometry">
            <mxPoint x="-493" y="130" as="sourcePoint" />
            <mxPoint x="-493" y="160" as="targetPoint" />
          </mxGeometry>
        </mxCell>
        <mxCell id="3Fzgw3bwLbgeH6Izsh_8-102" value="" style="endArrow=none;html=1;rounded=0;exitX=0.5;exitY=1;exitDx=0;exitDy=0;entryX=0.5;entryY=0;entryDx=0;entryDy=0;" parent="1" source="3Fzgw3bwLbgeH6Izsh_8-77" target="3Fzgw3bwLbgeH6Izsh_8-81" edge="1">
          <mxGeometry width="50" height="50" relative="1" as="geometry">
            <mxPoint x="-453" y="330" as="sourcePoint" />
            <mxPoint x="-403" y="280" as="targetPoint" />
          </mxGeometry>
        </mxCell>
        <mxCell id="3Fzgw3bwLbgeH6Izsh_8-103" value="" style="endArrow=none;html=1;rounded=0;exitX=0.5;exitY=1;exitDx=0;exitDy=0;entryX=0.5;entryY=0;entryDx=0;entryDy=0;" parent="1" source="3Fzgw3bwLbgeH6Izsh_8-60" target="3Fzgw3bwLbgeH6Izsh_8-78" edge="1">
          <mxGeometry width="50" height="50" relative="1" as="geometry">
            <mxPoint x="-453" y="330" as="sourcePoint" />
            <mxPoint x="-403" y="280" as="targetPoint" />
          </mxGeometry>
        </mxCell>
        <mxCell id="3Fzgw3bwLbgeH6Izsh_8-104" value="" style="endArrow=none;html=1;rounded=0;exitX=0.5;exitY=1;exitDx=0;exitDy=0;entryX=0.5;entryY=0;entryDx=0;entryDy=0;" parent="1" source="3Fzgw3bwLbgeH6Izsh_8-78" target="3Fzgw3bwLbgeH6Izsh_8-82" edge="1">
          <mxGeometry width="50" height="50" relative="1" as="geometry">
            <mxPoint x="-453" y="330" as="sourcePoint" />
            <mxPoint x="-403" y="280" as="targetPoint" />
          </mxGeometry>
        </mxCell>
        <mxCell id="3Fzgw3bwLbgeH6Izsh_8-106" value="" style="endArrow=none;html=1;rounded=0;entryX=0.5;entryY=1;entryDx=0;entryDy=0;exitX=0.5;exitY=0;exitDx=0;exitDy=0;" parent="1" source="3Fzgw3bwLbgeH6Izsh_8-83" edge="1">
          <mxGeometry width="50" height="50" relative="1" as="geometry">
            <mxPoint x="-340" y="410" as="sourcePoint" />
            <mxPoint x="-300" y="270" as="targetPoint" />
          </mxGeometry>
        </mxCell>
        <mxCell id="QeUq1AexTFqov1dsiFRE-29" value="" style="endArrow=none;html=1;rounded=0;exitX=0.5;exitY=1;exitDx=0;exitDy=0;" edge="1" parent="1" source="3Fzgw3bwLbgeH6Izsh_8-59" target="3Fzgw3bwLbgeH6Izsh_8-77">
          <mxGeometry width="50" height="50" relative="1" as="geometry">
            <mxPoint x="-603" y="40" as="sourcePoint" />
            <mxPoint x="-603" y="80" as="targetPoint" />
          </mxGeometry>
        </mxCell>
        <mxCell id="3Fzgw3bwLbgeH6Izsh_8-77" value="+" style="ellipse;whiteSpace=wrap;html=1;aspect=fixed;fillColor=#3399FF;" parent="1" vertex="1">
          <mxGeometry x="-508" y="130" width="30" height="30" as="geometry" />
        </mxCell>
        <mxCell id="QeUq1AexTFqov1dsiFRE-30" value="" style="rounded=0;whiteSpace=wrap;html=1;" vertex="1" parent="1">
          <mxGeometry x="-770" y="70" width="180" height="430" as="geometry" />
        </mxCell>
        <mxCell id="QeUq1AexTFqov1dsiFRE-31" value="10" style="whiteSpace=wrap;html=1;aspect=fixed;fillColor=#99FF99;" vertex="1" parent="1">
          <mxGeometry x="-740" y="90" width="40" height="40" as="geometry" />
        </mxCell>
        <mxCell id="QeUq1AexTFqov1dsiFRE-32" value="20" style="whiteSpace=wrap;html=1;aspect=fixed;fillColor=#99FF99;" vertex="1" parent="1">
          <mxGeometry x="-700" y="225" width="40" height="40" as="geometry" />
        </mxCell>
        <mxCell id="QeUq1AexTFqov1dsiFRE-33" value="8" style="whiteSpace=wrap;html=1;aspect=fixed;fillColor=#99FF99;" vertex="1" parent="1">
          <mxGeometry x="-650" y="355" width="40" height="40" as="geometry" />
        </mxCell>
        <mxCell id="QeUq1AexTFqov1dsiFRE-34" value="+" style="ellipse;whiteSpace=wrap;html=1;aspect=fixed;fillColor=#3399FF;" vertex="1" parent="1">
          <mxGeometry x="-735" y="140" width="30" height="30" as="geometry" />
        </mxCell>
        <mxCell id="QeUq1AexTFqov1dsiFRE-35" value="+" style="ellipse;whiteSpace=wrap;html=1;aspect=fixed;fillColor=#3399FF;" vertex="1" parent="1">
          <mxGeometry x="-645" y="405" width="30" height="30" as="geometry" />
        </mxCell>
        <mxCell id="QeUq1AexTFqov1dsiFRE-36" value="3" style="whiteSpace=wrap;html=1;aspect=fixed;fillColor=#99FF99;" vertex="1" parent="1">
          <mxGeometry x="-740" y="180" width="40" height="40" as="geometry" />
        </mxCell>
        <mxCell id="QeUq1AexTFqov1dsiFRE-37" value="2" style="whiteSpace=wrap;html=1;aspect=fixed;fillColor=#99FF99;" vertex="1" parent="1">
          <mxGeometry x="-700" y="315" width="40" height="40" as="geometry" />
        </mxCell>
        <mxCell id="QeUq1AexTFqov1dsiFRE-38" value="13" style="whiteSpace=wrap;html=1;aspect=fixed;fillColor=#99FF99;" vertex="1" parent="1">
          <mxGeometry x="-650" y="445" width="40" height="40" as="geometry" />
        </mxCell>
        <mxCell id="QeUq1AexTFqov1dsiFRE-39" value="" style="endArrow=none;html=1;rounded=0;exitX=0.5;exitY=1;exitDx=0;exitDy=0;entryX=0.5;entryY=0;entryDx=0;entryDy=0;" edge="1" parent="1" source="QeUq1AexTFqov1dsiFRE-31" target="QeUq1AexTFqov1dsiFRE-34">
          <mxGeometry width="50" height="50" relative="1" as="geometry">
            <mxPoint x="-640" y="340" as="sourcePoint" />
            <mxPoint x="-590" y="290" as="targetPoint" />
          </mxGeometry>
        </mxCell>
        <mxCell id="QeUq1AexTFqov1dsiFRE-40" value="" style="endArrow=none;html=1;rounded=0;exitX=0.5;exitY=1;exitDx=0;exitDy=0;entryX=0.5;entryY=0;entryDx=0;entryDy=0;" edge="1" parent="1" source="QeUq1AexTFqov1dsiFRE-34" target="QeUq1AexTFqov1dsiFRE-36">
          <mxGeometry width="50" height="50" relative="1" as="geometry">
            <mxPoint x="-640" y="340" as="sourcePoint" />
            <mxPoint x="-590" y="290" as="targetPoint" />
          </mxGeometry>
        </mxCell>
        <mxCell id="QeUq1AexTFqov1dsiFRE-42" value="" style="endArrow=none;html=1;rounded=0;exitX=0.5;exitY=1;exitDx=0;exitDy=0;entryX=0.5;entryY=0;entryDx=0;entryDy=0;" edge="1" parent="1" source="QeUq1AexTFqov1dsiFRE-46" target="QeUq1AexTFqov1dsiFRE-37">
          <mxGeometry width="50" height="50" relative="1" as="geometry">
            <mxPoint x="-610" y="400" as="sourcePoint" />
            <mxPoint x="-560" y="350" as="targetPoint" />
          </mxGeometry>
        </mxCell>
        <mxCell id="QeUq1AexTFqov1dsiFRE-43" value="" style="endArrow=none;html=1;rounded=0;exitX=0.5;exitY=1;exitDx=0;exitDy=0;entryX=0.5;entryY=0;entryDx=0;entryDy=0;" edge="1" parent="1" source="QeUq1AexTFqov1dsiFRE-33" target="QeUq1AexTFqov1dsiFRE-35">
          <mxGeometry width="50" height="50" relative="1" as="geometry">
            <mxPoint x="-610" y="400" as="sourcePoint" />
            <mxPoint x="-560" y="350" as="targetPoint" />
          </mxGeometry>
        </mxCell>
        <mxCell id="QeUq1AexTFqov1dsiFRE-44" value="" style="endArrow=none;html=1;rounded=0;exitX=0.5;exitY=1;exitDx=0;exitDy=0;entryX=0.5;entryY=0;entryDx=0;entryDy=0;" edge="1" parent="1" source="QeUq1AexTFqov1dsiFRE-35" target="QeUq1AexTFqov1dsiFRE-38">
          <mxGeometry width="50" height="50" relative="1" as="geometry">
            <mxPoint x="-610" y="400" as="sourcePoint" />
            <mxPoint x="-560" y="350" as="targetPoint" />
          </mxGeometry>
        </mxCell>
        <mxCell id="QeUq1AexTFqov1dsiFRE-45" value="" style="endArrow=none;html=1;rounded=0;exitX=0.5;exitY=1;exitDx=0;exitDy=0;" edge="1" parent="1" source="QeUq1AexTFqov1dsiFRE-32" target="QeUq1AexTFqov1dsiFRE-46">
          <mxGeometry width="50" height="50" relative="1" as="geometry">
            <mxPoint x="-760" y="110" as="sourcePoint" />
            <mxPoint x="-760" y="150" as="targetPoint" />
          </mxGeometry>
        </mxCell>
        <mxCell id="QeUq1AexTFqov1dsiFRE-46" value="+" style="ellipse;whiteSpace=wrap;html=1;aspect=fixed;fillColor=#3399FF;" vertex="1" parent="1">
          <mxGeometry x="-695" y="275" width="30" height="30" as="geometry" />
        </mxCell>
        <mxCell id="QeUq1AexTFqov1dsiFRE-49" value="&lt;b&gt;SISD&lt;/b&gt;" style="text;html=1;align=center;verticalAlign=middle;whiteSpace=wrap;rounded=0;" vertex="1" parent="1">
          <mxGeometry x="-705" y="40" width="60" height="30" as="geometry" />
        </mxCell>
        <mxCell id="QeUq1AexTFqov1dsiFRE-50" value="&lt;b&gt;SIMD&lt;/b&gt;" style="text;html=1;align=center;verticalAlign=middle;whiteSpace=wrap;rounded=0;" vertex="1" parent="1">
          <mxGeometry x="-530" y="40" width="60" height="30" as="geometry" />
        </mxCell>
      </root>
    </mxGraphModel>
  </diagram>
</mxfile>
